<svg version="1.1" xmlns="http://www.w3.org/2000/svg" viewBox="0 0 384 55" width="384" height="55">
  <!-- svg-source:excalidraw -->
  
  <defs>
    <style class="style-fonts">
      @font-face {
        font-family: "Virgil";
        src: url("https://excalidraw.com/Virgil.woff2");
      }
      @font-face {
        font-family: "Cascadia";
        src: url("https://excalidraw.com/Cascadia.woff2");
      }
      @font-face {
        font-family: "Assistant";
        src: url("https://excalidraw.com/Assistant-Regular.woff2");
      }
    </style>
    
  </defs>
  <rect x="0" y="0" width="384" height="55" fill="#ffffff"></rect><g transform="translate(10 45) rotate(0 182 -17.5)" stroke="none"><path fill="#1e1e1e" d="M -0.71,-3.04 Q -0.71,-3.04 4.18,-4.12 9.09,-5.20 20.10,-7.66 31.11,-10.12 49.61,-14.02 68.10,-17.93 91.86,-21.32 115.62,-24.71 141.54,-27.58 167.45,-30.45 193.45,-32.24 219.46,-34.03 241.45,-34.78 263.45,-35.54 281.41,-36.15 299.36,-36.75 312.19,-37.01 325.01,-37.26 333.34,-37.37 341.66,-37.48 346.93,-37.52 352.20,-37.57 355.44,-37.50 358.68,-37.43 361.46,-37.42 364.24,-37.41 364.78,-37.28 365.32,-37.15 365.79,-36.86 366.26,-36.57 366.61,-36.14 366.96,-35.71 367.15,-35.19 367.35,-34.68 367.37,-34.12 367.39,-33.57 367.24,-33.04 367.08,-32.51 366.76,-32.05 366.44,-31.60 366.00,-31.27 365.55,-30.94 365.02,-30.77 364.49,-30.61 363.94,-30.62 363.38,-30.63 362.86,-30.81 362.34,-31.00 361.91,-31.34 361.47,-31.68 361.17,-32.15 360.86,-32.61 360.72,-33.15 360.58,-33.68 360.62,-34.23 360.66,-34.79 360.88,-35.30 361.09,-35.81 361.46,-36.23 361.82,-36.64 362.30,-36.92 362.78,-37.20 363.32,-37.31 363.87,-37.42 364.42,-37.35 364.97,-37.28 365.47,-37.04 365.96,-36.80 366.36,-36.41 366.76,-36.02 367.01,-35.53 367.26,-35.03 367.34,-34.49 367.42,-33.94 367.32,-33.39 367.22,-32.85 366.95,-32.36 366.69,-31.88 366.28,-31.50 365.87,-31.13 365.36,-30.90 364.86,-30.68 364.30,-30.63 363.75,-30.58 363.75,-30.58 363.75,-30.58 360.95,-30.97 358.15,-31.36 355.20,-31.82 352.24,-32.28 346.99,-32.23 341.73,-32.18 333.43,-32.07 325.12,-31.96 312.33,-31.69 299.54,-31.43 281.59,-30.81 263.64,-30.19 241.73,-29.41 219.83,-28.64 193.94,-26.83 168.06,-25.02 142.23,-22.13 116.41,-19.23 92.84,-15.83 69.28,-12.42 50.83,-8.45 32.39,-4.48 21.42,-1.93 10.45,0.60 5.58,1.82 0.71,3.04 0.34,3.08 -0.03,3.12 -0.40,3.07 -0.77,3.02 -1.13,2.88 -1.48,2.75 -1.78,2.53 -2.09,2.31 -2.34,2.03 -2.58,1.74 -2.76,1.41 -2.93,1.07 -3.01,0.71 -3.10,0.34 -3.10,-0.03 -3.09,-0.40 -3.00,-0.77 -2.90,-1.13 -2.73,-1.47 -2.55,-1.80 -2.29,-2.08 -2.04,-2.36 -1.73,-2.57 -1.42,-2.78 -1.06,-2.91 -0.71,-3.04 -0.71,-3.04 L -0.71,-3.04 Z"></path></g></svg>